<svg width="600" height="600" xmlns="http://www.w3.org/2000/svg" preserveAspectRatio="xMidYMid meet">
 <metadata>Created by potrace 1.15, written by Peter Selinger 2001-2017</metadata>

 <g>
  <title>background</title>
  <rect fill="#ffffff" id="canvas_background" height="602" width="602" y="-1" x="-1"/>
 </g>
 <g>
  <title>Layer 1</title>
  <g id="svg_1" fill="#000000" transform="translate(0,600) scale(0.10000000149011612,-0.10000000149011612) ">
   <path stroke="#000000" fill="#663200" id="svg_2" d="m3211,5470c-16,-72 -14,-287 4,-402c8,-53 28,-150 45,-216c34,-137 36,-152 16,-152c-26,0 -86,82 -148,205c-34,66 -64,113 -65,104c-2,-9 3,-49 12,-90c32,-150 33,-143 -3,-136c-39,8 -41,-4 -12,-88c28,-82 27,-103 -7,-107c-26,-3 -28,-6 -26,-41c3,-50 40,-117 120,-217c36,-45 62,-84 59,-88c-4,-3 -27,-1 -51,6c-84,22 -90,16 -49,-49c33,-52 26,-69 -26,-69c-51,0 -52,-14 -2,-77c80,-100 227,-220 369,-299c54,-30 71,-51 31,-38c-50,15 -187,85 -253,130c-119,80 -222,173 -366,331c-135,149 -164,189 -188,266c-14,41 -28,51 -83,60c-20,3 -92,28 -160,55c-67,28 -178,63 -245,80c-142,34 -176,52 -220,112c-100,136 -132,161 -183,140c-43,-18 -88,-84 -175,-260c-103,-207 -143,-264 -296,-427c-195,-207 -267,-326 -317,-528c-50,-197 -60,-450 -27,-698c23,-180 18,-196 -98,-298c-164,-144 -202,-199 -195,-284c6,-67 20,-84 154,-189c99,-78 118,-89 209,-117c108,-34 171,-38 286,-19c35,5 94,10 132,10c64,0 67,-1 67,-24c0,-30 16,-36 102,-36c66,0 70,-1 65,-21c-8,-31 49,-50 171,-57c56,-3 102,-9 102,-14c0,-4 -5,-17 -12,-28c-17,-27 -9,-31 68,-37c108,-7 107,-5 119,-173c7,-97 34,-221 65,-299c11,-30 18,-56 15,-59c-3,-3 -63,2 -133,12c-175,25 -320,31 -364,17c-80,-26 -121,-118 -84,-189c41,-80 138,-101 521,-112c298,-9 421,-20 486,-47c47,-18 53,-35 28,-67c-28,-35 -85,-50 -334,-86c-412,-61 -546,-100 -575,-169c-11,-26 -9,-36 10,-76c34,-70 86,-100 169,-99c56,1 79,7 150,43c56,27 88,38 95,31c6,-6 4,-16 -7,-28c-52,-58 35,-104 134,-71c19,7 67,32 107,56c39,25 99,54 132,64c78,24 237,39 420,39c248,1 368,14 525,60c77,22 231,60 343,86c309,69 452,124 632,243c250,166 540,444 540,520c0,15 49,128 110,252c119,242 170,370 170,425c0,29 -3,34 -24,34c-31,0 -56,34 -56,76c0,40 28,196 79,444c24,115 41,222 41,262c0,63 -2,68 -27,80c-15,7 -36,29 -47,48c-19,31 -21,51 -20,188c0,83 -2,152 -5,152c-3,-1 -17,-7 -31,-15c-14,-8 -31,-14 -37,-15c-24,0 -44,62 -59,178c-8,64 -19,128 -25,141l-10,24l-23,-22c-46,-44 -64,-22 -82,102c-3,26 -10,49 -13,52c-4,2 -24,-7 -44,-20c-48,-33 -55,-32 -62,13c-11,58 -25,112 -31,112c-3,0 -19,-9 -35,-21c-16,-11 -36,-19 -45,-17c-9,2 -39,42 -66,91c-27,48 -55,87 -62,87c-7,0 -18,-11 -24,-25c-22,-48 -27,-42 -115,158c-14,31 -30,57 -35,57c-4,0 -16,-16 -25,-35c-9,-19 -22,-35 -28,-35c-24,0 -89,82 -145,182c-95,170 -112,187 -133,128c-5,-16 -15,-30 -20,-30c-15,0 -85,92 -126,164c-19,35 -53,118 -75,186c-22,68 -43,126 -46,129c-4,3 -3,-69 0,-161c5,-109 4,-168 -2,-168c-33,0 -81,139 -117,335c-14,77 -29,143 -34,148c-4,4 -20,-10 -35,-33c-14,-22 -32,-40 -40,-40c-35,0 -69,78 -101,233c-23,116 -33,114 -51,-8c-11,-85 -20,-86 -44,-5c-12,41 -26,86 -32,100l-10,25l-10,-25c-6,-15 -8,-117 -5,-258c2,-128 1,-235 -4,-238c-12,-7 -37,47 -54,118c-8,35 -24,137 -35,228c-12,91 -25,169 -29,173c-5,5 -14,-14 -20,-43zm-675,-1018c15,-10 74,-93 74,-104c0,-5 -23,9 -51,31c-29,23 -58,41 -66,41c-59,0 -217,-140 -263,-234c-27,-54 -50,-167 -50,-248c0,-34 -19,-18 -31,25c-29,108 19,243 126,352c109,111 217,167 261,137zm-171,-296c-36,-100 -43,-161 -24,-199c7,-12 32,-44 57,-70c48,-53 46,-38 26,-166c-6,-33 -2,-42 26,-72c30,-32 31,-32 25,-9c-19,73 -18,120 5,153c23,34 68,72 76,65c2,-3 -7,-30 -21,-60c-24,-53 -24,-57 -10,-98c21,-59 19,-78 -15,-135c-16,-27 -30,-60 -30,-72c0,-12 -4,-24 -9,-28c-10,-6 -15,7 -26,65c-4,19 -23,63 -42,98c-26,46 -37,82 -44,137c-6,50 -21,98 -44,147c-45,93 -46,141 -5,222c32,63 79,130 86,123c2,-2 -12,-48 -31,-101zm1408,-545c141,-49 401,-200 548,-319c126,-102 261,-284 237,-321c-7,-12 5,-49 46,-144c44,-100 96,-249 96,-275c0,-2 -9,0 -20,3c-18,6 -20,2 -20,-37c0,-24 5,-100 11,-169c12,-133 7,-191 -14,-170c-9,9 -15,-22 -24,-141c-13,-167 -23,-211 -50,-206c-14,3 -19,-10 -29,-78c-18,-122 -41,-195 -62,-192c-12,2 -22,-14 -40,-62c-12,-35 -25,-66 -27,-69c-3,-2 -5,80 -5,182c0,103 4,187 8,187c4,0 20,-25 36,-56c18,-37 31,-53 37,-47c5,5 14,76 20,158c5,81 12,152 15,156c3,5 14,3 24,-3c11,-7 22,-9 26,-6c15,15 15,141 0,252c-9,66 -13,122 -10,125c3,3 12,-3 20,-13c21,-29 23,-18 9,50c-13,59 -45,146 -99,267c-14,31 -22,57 -17,57c5,0 33,-26 62,-57l53,-58l-43,80c-24,44 -66,122 -93,173c-28,51 -48,96 -44,99c3,4 24,-8 45,-25c22,-18 42,-32 46,-32c14,0 -30,64 -95,135c-63,69 -69,79 -56,94c10,11 12,21 5,34c-18,31 -147,114 -247,157c-117,51 -123,56 -116,84c7,30 -36,63 -191,143c-125,65 -136,76 -42,44zm-1919,-232c51,-14 33,-24 -52,-32c-90,-8 -151,-41 -180,-97c-12,-25 -27,-65 -33,-90c-11,-43 -12,-44 -21,-20c-15,37 -3,139 19,168c54,72 161,100 267,71zm76,-131c0,-104 -27,-153 -105,-189c-45,-21 -135,-25 -184,-8c-46,16 -38,29 20,29c123,0 195,45 223,139c9,30 16,67 16,81c0,15 3,30 7,33c14,14 23,-20 23,-85zm645,-20c-4,-13 -24,-61 -46,-108c-119,-253 -315,-442 -539,-521c-129,-46 -222,-55 -350,-34c-108,17 -110,17 -194,-4c-47,-11 -99,-21 -116,-21c-41,0 -183,56 -219,86c-57,48 -75,147 -37,199c12,17 14,13 12,-37c-2,-87 42,-135 149,-164c117,-31 123,-32 197,-18c40,8 94,14 120,14c25,0 48,5 50,11c3,8 34,6 108,-6c113,-18 200,-13 200,11c0,18 20,27 120,54c104,27 160,49 160,62c0,5 34,47 76,91c88,95 174,207 247,324c51,82 74,104 62,61zm-1605,-554c0,-3 -13,-23 -29,-43c-47,-60 -70,-116 -82,-198c-12,-85 -28,-109 -61,-92c-27,14 -58,69 -58,102c0,55 45,110 160,196c53,39 70,48 70,35zm590,-161c-19,-8 -95,-28 -169,-44c-74,-16 -139,-33 -144,-38c-4,-4 8,-11 30,-14c34,-6 65,-3 198,17c36,5 31,2 -40,-34c-91,-45 -89,-47 15,-20c122,31 110,13 -42,-66c-96,-50 -97,-60 -4,-27c21,7 44,13 50,13c23,-1 -72,-73 -141,-106c-40,-20 -73,-37 -73,-38c0,-5 105,12 150,24c24,6 80,30 125,51l80,40l-45,-41c-94,-85 -248,-139 -354,-125c-133,18 -267,69 -251,96c4,5 50,9 103,10c133,1 163,15 45,21c-71,3 -97,8 -113,23c-24,22 -26,41 -4,49c9,3 59,6 112,6c58,1 109,6 127,14c34,15 33,15 -60,41c-103,29 -159,77 -102,89c12,3 65,10 117,15c52,6 149,22 215,35c66,14 140,24 165,24l45,0l-35,-15zm1290,-470c-85,-110 -149,-233 -195,-373c-33,-102 -35,-106 -46,-89c-4,7 -10,11 -13,8c-11,-11 -26,-141 -26,-231c0,-95 -8,-117 -29,-80c-16,27 -14,-42 3,-108c8,-30 12,-57 10,-59c-8,-9 -43,33 -74,89l-31,55l7,-44c9,-61 -7,-46 -42,41c-26,65 -29,70 -34,43c-3,-15 -10,-30 -17,-32c-27,-9 -111,136 -139,240c-30,107 -37,373 -10,328c6,-10 19,-1 51,33c45,50 65,58 65,26c0,-11 2,-20 5,-20c3,0 31,21 62,46c50,41 108,74 129,74c4,0 4,-13 1,-30c-4,-19 -2,-30 4,-30c6,0 44,20 83,45c85,52 100,56 86,20c-11,-28 -4,-32 19,-11c22,19 134,86 144,86c5,0 -1,-12 -13,-27zm55,-113c-8,-23 -15,-45 -15,-49c0,-3 22,19 49,49c27,30 52,52 55,49c4,-4 -2,-31 -14,-60l-20,-54l32,39c18,22 40,49 50,60c37,46 24,3 -37,-124c-68,-143 -99,-241 -113,-358c-9,-79 -6,-91 15,-64c13,15 14,6 9,-72c-7,-97 2,-216 15,-216c5,0 9,8 9,18c0,14 2,15 10,2c5,-8 10,-40 10,-70c0,-56 13,-126 25,-138c3,-4 11,0 16,8c15,21 5,-141 -10,-169c-17,-31 -28,-26 -59,24c-29,48 -39,54 -48,30c-11,-28 -23,-16 -45,45c-24,65 -34,78 -43,55c-10,-26 -22,-17 -46,35c-13,28 -27,46 -30,40c-19,-30 -57,81 -72,211c-8,70 -8,121 -1,183c11,90 18,110 32,87c6,-8 13,10 20,53c23,130 81,302 81,241c0,-11 19,14 41,55c43,79 88,144 95,137c2,-2 -3,-23 -11,-47z"/>
  </g>
 </g>
</svg>